# xmcd CD database file
#
# Track frame offsets:
#	150
#	13573
#	26917
#	44897
#	60397
#	72712
#	91441
#	104607
#	120689
#	133127
#	145834
#	156395
#	167152
#	179131
#
# Disc length: 2570 seconds
#
# Revision: 2
# Processed by: cddbd v1.5.2PL0 Copyright (c) Steve Scherf et al.
# Submitted via: CDex 1.51
#
DISCID=dc0a080e
DTITLE=Various Artist - A Jazzy Christmas
DYEAR=2003
DGENRE=Jazz
TTITLE0=Sleigh Ride - Ella Fitzgerald
TTITLE1=Cool Yule - Louis Armstrong
TTITLE2=I've Got My Love To Keep Me Warm - Billy Holiday
TTITLE3=Santa Baby - Eartha Kitt
TTITLE4=Ole Santa - Dinah Washington
TTITLE5=Winter Wonderland - Shirley Horn
TTITLE6=Christmas In New Orleans - Louis Armstrong
TTITLE7=What Are You Doing New Year's Eve - Ella Fitzgerald
TTITLE8=Christmas Song - Mel Torme
TTITLE9=Zat You Santa Claus - Louis Armstrong
TTITLE10=Ring Those Christmas Bells - Peggy Lee
TTITLE11=Silent Night - Dinah Washington
TTITLE12=Christmas Night In Harlem - Louis Armstrong
TTITLE13=White Christmas - Ella Fitzgerald
EXTD=YEAR: 2003
EXTT0=
EXTT1=
EXTT2=
EXTT3=
EXTT4=
EXTT5=
EXTT6=
EXTT7=
EXTT8=
EXTT9=
EXTT10=
EXTT11=
EXTT12=
EXTT13=
PLAYORDER=
